<svg width="198" height="237" viewBox="0 0 198 237" fill="none" xmlns="http://www.w3.org/2000/svg">
<path fill-rule="evenodd" clip-rule="evenodd" d="M19.5372 114.816L10.6083 123.745L19.5372 132.674V114.816ZM80.8164 53.5372H166.674L123.745 10.6082L80.8164 53.5372ZM179.537 66.4001V82.0956L187.385 74.2478L179.537 66.4001ZM118.095 143.537H30.4002L74.2479 187.385L118.095 143.537Z" fill="#F7D734"/>
<path fill-rule="evenodd" clip-rule="evenodd" d="M19.5372 132.674L30.4002 143.537H19.5372V132.674ZM19.5372 114.816V53.5373H80.8164L19.5372 114.816ZM166.674 53.5373L179.537 66.4002V53.5373H166.674ZM179.537 82.0957L118.095 143.537H179.537V82.0957Z" fill="#00A8B3"/>
<path fill-rule="evenodd" clip-rule="evenodd" d="M30.4002 143.537L19.5372 132.674V114.816L80.8164 53.5373H166.674L179.537 66.4002V82.0957L118.095 143.537H30.4002Z" fill="#29ED09"/>
<path d="M179.537 143.537H19.5372V158.537H179.537V143.537Z" fill="#582A94"/>
<path d="M179.537 38.5373H19.5372V53.5373H179.537V38.5373Z" fill="#582A94"/>
<path d="M113.137 0L0 113.137L10.6084 123.745L123.745 10.6084L113.137 0Z" fill="#582A94"/>
<path d="M187.385 74.248L74.2479 187.385L84.8526 197.99L197.989 84.8527L187.385 74.248Z" fill="#582A94"/>
<path d="M123.537 98.5373L88.5372 113.537V83.5373L123.537 98.5373Z" fill="white"/>
<path d="M38.0812 208.431L30.4919 231.537H25.8674L18.3102 208.431H23.5632L28.1716 223.851L32.7961 208.431H38.0812ZM45.0261 209.591C45.0261 209.999 44.9455 210.38 44.7844 210.735C44.634 211.089 44.4245 211.401 44.1559 211.669C43.8874 211.927 43.5705 212.137 43.2053 212.298C42.8508 212.448 42.4694 212.523 42.0612 212.523C41.653 212.523 41.2663 212.448 40.9011 212.298C40.5466 212.137 40.235 211.927 39.9665 211.669C39.7087 211.401 39.4992 211.089 39.3381 210.735C39.1877 210.38 39.1125 209.999 39.1125 209.591C39.1125 209.193 39.1877 208.817 39.3381 208.463C39.4992 208.098 39.7087 207.786 39.9665 207.528C40.235 207.26 40.5466 207.05 40.9011 206.9C41.2663 206.739 41.653 206.658 42.0612 206.658C42.4694 206.658 42.8508 206.739 43.2053 206.9C43.5705 207.05 43.8874 207.26 44.1559 207.528C44.4245 207.786 44.634 208.098 44.7844 208.463C44.9455 208.817 45.0261 209.193 45.0261 209.591ZM44.2687 231.537H39.8376V214.28H44.2687V231.537ZM64.3137 231.537H63.2502L61.5422 229.168C61.1232 229.544 60.6774 229.899 60.2048 230.232C59.7429 230.554 59.2541 230.839 58.7385 231.086C58.2228 231.322 57.6911 231.51 57.1432 231.65C56.6061 231.79 56.0583 231.859 55.4997 231.859C54.2858 231.859 53.1418 231.634 52.0676 231.183C51.0041 230.721 50.0695 230.087 49.2639 229.281C48.4689 228.465 47.8405 227.503 47.3786 226.397C46.9167 225.28 46.6857 224.066 46.6857 222.755C46.6857 221.456 46.9167 220.247 47.3786 219.13C47.8405 218.013 48.4689 217.046 49.2639 216.229C50.0695 215.413 51.0041 214.774 52.0676 214.312C53.1418 213.85 54.2858 213.619 55.4997 213.619C55.8864 213.619 56.2839 213.651 56.6921 213.716C57.111 213.78 57.5139 213.888 57.9006 214.038C58.298 214.178 58.6686 214.366 59.0124 214.602C59.3561 214.838 59.6462 215.128 59.8825 215.472V207.415H64.3137V231.537ZM59.8825 222.755C59.8825 222.154 59.7643 221.574 59.528 221.015C59.3024 220.446 58.9909 219.946 58.5934 219.517C58.196 219.076 57.7287 218.727 57.1916 218.469C56.6652 218.201 56.1013 218.066 55.4997 218.066C54.8981 218.066 54.3288 218.174 53.7917 218.389C53.2653 218.603 52.8034 218.915 52.4059 219.323C52.0192 219.721 51.7131 220.209 51.4875 220.79C51.2619 221.37 51.1491 222.025 51.1491 222.755C51.1491 223.389 51.2619 223.991 51.4875 224.56C51.7131 225.129 52.0192 225.629 52.4059 226.059C52.8034 226.488 53.2653 226.827 53.7917 227.074C54.3288 227.321 54.8981 227.444 55.4997 227.444C56.1013 227.444 56.6652 227.315 57.1916 227.058C57.7287 226.789 58.196 226.44 58.5934 226.01C58.9909 225.57 59.3024 225.07 59.528 224.512C59.7643 223.942 59.8825 223.357 59.8825 222.755ZM74.5456 227.315C74.7175 227.369 74.8893 227.407 75.0612 227.428C75.2331 227.439 75.405 227.444 75.5768 227.444C76.0065 227.444 76.4201 227.385 76.8176 227.267C77.215 227.149 77.5856 226.982 77.9294 226.768C78.2839 226.542 78.5954 226.273 78.864 225.962C79.1432 225.64 79.3688 225.285 79.5407 224.898L82.7634 228.137C82.3552 228.717 81.8825 229.238 81.3454 229.7C80.819 230.162 80.2443 230.554 79.6213 230.876C79.009 231.199 78.3591 231.44 77.6716 231.602C76.9948 231.773 76.2966 231.859 75.5768 231.859C74.363 231.859 73.2189 231.634 72.1447 231.183C71.0812 230.731 70.1467 230.103 69.341 229.297C68.5461 228.492 67.9177 227.536 67.4557 226.429C66.9938 225.312 66.7629 224.087 66.7629 222.755C66.7629 221.391 66.9938 220.145 67.4557 219.017C67.9177 217.889 68.5461 216.928 69.341 216.133C70.1467 215.338 71.0812 214.72 72.1447 214.28C73.2189 213.839 74.363 213.619 75.5768 213.619C76.2966 213.619 77.0002 213.705 77.6877 213.877C78.3752 214.049 79.0251 214.296 79.6374 214.618C80.2604 214.94 80.8405 215.338 81.3776 215.811C81.9147 216.272 82.3874 216.793 82.7956 217.374L74.5456 227.315ZM76.8015 218.244C76.5974 218.168 76.3932 218.12 76.1891 218.099C75.9958 218.077 75.7917 218.066 75.5768 218.066C74.9753 218.066 74.4059 218.179 73.8688 218.405C73.3425 218.62 72.8806 218.931 72.4831 219.339C72.0964 219.748 71.7902 220.242 71.5646 220.822C71.3391 221.391 71.2263 222.036 71.2263 222.755C71.2263 222.916 71.2316 223.099 71.2424 223.303C71.2639 223.507 71.2907 223.717 71.3229 223.932C71.3659 224.136 71.4142 224.334 71.468 224.528C71.5217 224.721 71.5915 224.893 71.6774 225.043L76.8015 218.244ZM101.568 222.755C101.568 224.044 101.337 225.248 100.875 226.365C100.413 227.471 99.7844 228.433 98.9894 229.249C98.1945 230.055 97.2599 230.694 96.1857 231.166C95.1223 231.628 93.9782 231.859 92.7536 231.859C91.5397 231.859 90.3957 231.628 89.3215 231.166C88.258 230.694 87.3234 230.055 86.5178 229.249C85.7228 228.433 85.0944 227.471 84.6325 226.365C84.1706 225.248 83.9396 224.044 83.9396 222.755C83.9396 221.445 84.1706 220.231 84.6325 219.114C85.0944 217.997 85.7228 217.035 86.5178 216.229C87.3234 215.413 88.258 214.774 89.3215 214.312C90.3957 213.85 91.5397 213.619 92.7536 213.619C93.9782 213.619 95.1223 213.839 96.1857 214.28C97.2599 214.709 98.1945 215.327 98.9894 216.133C99.7844 216.928 100.413 217.889 100.875 219.017C101.337 220.134 101.568 221.38 101.568 222.755ZM97.1364 222.755C97.1364 222.046 97.0182 221.407 96.7819 220.838C96.5563 220.258 96.2448 219.764 95.8474 219.355C95.4499 218.936 94.9826 218.62 94.4455 218.405C93.9191 218.179 93.3552 218.066 92.7536 218.066C92.152 218.066 91.5827 218.179 91.0456 218.405C90.5192 218.62 90.0573 218.936 89.6599 219.355C89.2731 219.764 88.967 220.258 88.7414 220.838C88.5158 221.407 88.403 222.046 88.403 222.755C88.403 223.421 88.5158 224.039 88.7414 224.608C88.967 225.178 89.2731 225.672 89.6599 226.091C90.0573 226.51 90.5192 226.843 91.0456 227.09C91.5827 227.326 92.152 227.444 92.7536 227.444C93.3552 227.444 93.9191 227.332 94.4455 227.106C94.9826 226.88 95.4499 226.563 95.8474 226.155C96.2448 225.747 96.5563 225.253 96.7819 224.673C97.0182 224.093 97.1364 223.454 97.1364 222.755ZM109.092 231.537H104.468V208.431H109.092V217.68H118.325V208.431H122.95V231.537H118.325V222.304H109.092V231.537ZM143.237 231.537H142.173L140.465 229.168C140.046 229.544 139.6 229.899 139.128 230.232C138.666 230.554 138.177 230.839 137.661 231.086C137.146 231.322 136.614 231.51 136.066 231.65C135.529 231.79 134.981 231.859 134.423 231.859C133.209 231.859 132.065 231.655 130.99 231.247C129.927 230.839 128.992 230.248 128.187 229.475C127.392 228.69 126.763 227.734 126.301 226.606C125.84 225.478 125.609 224.195 125.609 222.755C125.609 221.413 125.84 220.183 126.301 219.065C126.763 217.937 127.392 216.971 128.187 216.165C128.992 215.359 129.927 214.736 130.99 214.296C132.065 213.845 133.209 213.619 134.423 213.619C134.981 213.619 135.534 213.689 136.082 213.829C136.63 213.968 137.162 214.162 137.677 214.409C138.193 214.656 138.682 214.946 139.144 215.279C139.616 215.612 140.057 215.972 140.465 216.358L142.173 214.312H143.237V231.537ZM138.805 222.755C138.805 222.154 138.687 221.574 138.451 221.015C138.225 220.446 137.914 219.946 137.516 219.517C137.119 219.076 136.652 218.727 136.114 218.469C135.588 218.201 135.024 218.066 134.423 218.066C133.821 218.066 133.252 218.168 132.715 218.373C132.188 218.577 131.726 218.877 131.329 219.275C130.942 219.672 130.636 220.166 130.41 220.757C130.185 221.337 130.072 222.003 130.072 222.755C130.072 223.507 130.185 224.179 130.41 224.77C130.636 225.35 130.942 225.838 131.329 226.236C131.726 226.633 132.188 226.934 132.715 227.138C133.252 227.342 133.821 227.444 134.423 227.444C135.024 227.444 135.588 227.315 136.114 227.058C136.652 226.789 137.119 226.44 137.516 226.01C137.914 225.57 138.225 225.07 138.451 224.512C138.687 223.942 138.805 223.357 138.805 222.755ZM156.079 231.537H146.024V227.154H156.079C156.38 227.154 156.637 227.047 156.852 226.832C157.067 226.617 157.174 226.359 157.174 226.059C157.174 225.747 157.067 225.543 156.852 225.446C156.637 225.35 156.38 225.301 156.079 225.301H151.503C150.74 225.301 150.026 225.156 149.36 224.866C148.694 224.576 148.113 224.184 147.619 223.69C147.125 223.185 146.733 222.6 146.443 221.934C146.164 221.268 146.024 220.553 146.024 219.79C146.024 219.028 146.164 218.313 146.443 217.647C146.733 216.981 147.125 216.401 147.619 215.907C148.113 215.413 148.694 215.026 149.36 214.747C150.026 214.457 150.74 214.312 151.503 214.312H160.413V218.695H151.503C151.202 218.695 150.944 218.802 150.729 219.017C150.514 219.232 150.407 219.49 150.407 219.79C150.407 220.102 150.514 220.371 150.729 220.596C150.944 220.811 151.202 220.918 151.503 220.918H156.079C156.831 220.918 157.54 221.047 158.206 221.305C158.872 221.552 159.452 221.901 159.946 222.353C160.44 222.804 160.832 223.346 161.122 223.98C161.412 224.614 161.557 225.307 161.557 226.059C161.557 226.821 161.412 227.536 161.122 228.202C160.832 228.857 160.44 229.437 159.946 229.942C159.452 230.436 158.872 230.828 158.206 231.118C157.54 231.397 156.831 231.537 156.079 231.537ZM168.309 231.537H163.91V207.415H168.309V215.037C168.835 214.64 169.378 214.36 169.936 214.199C170.495 214.027 171.064 213.941 171.644 213.941C172.708 213.941 173.707 214.145 174.641 214.554C175.576 214.951 176.387 215.504 177.074 216.213C177.773 216.912 178.32 217.733 178.718 218.679C179.126 219.613 179.33 220.612 179.33 221.676V231.537H174.899V221.676H174.931C174.931 221.225 174.845 220.8 174.674 220.403C174.502 219.995 174.265 219.64 173.965 219.339C173.664 219.039 173.315 218.802 172.917 218.63C172.52 218.458 172.095 218.373 171.644 218.373C171.182 218.373 170.747 218.458 170.339 218.63C169.931 218.802 169.576 219.039 169.276 219.339C168.975 219.64 168.738 219.995 168.567 220.403C168.395 220.8 168.309 221.225 168.309 221.676V231.537Z" fill="#582A94"/>
</svg>
