<svg width="198" height="237" fill="none" xmlns="http://www.w3.org/2000/svg"><path fill-rule="evenodd" clip-rule="evenodd" d="m19.537 114.816-8.929 8.929 8.93 8.929v-17.858Zm61.28-61.279h85.857l-42.929-42.929-42.929 42.93Zm98.72 12.863v15.696l7.848-7.848-7.848-7.848Zm-61.442 77.137H30.4l43.848 43.848 43.847-43.848Z" fill="#F7D734"/><path fill-rule="evenodd" clip-rule="evenodd" d="M19.537 132.674 30.4 143.537H19.537v-10.863Zm0-17.858V53.537h61.28l-61.28 61.279Zm147.137-61.279L179.537 66.4V53.537h-12.863Zm12.863 28.559-61.442 61.441h61.442V82.096Z" fill="#00A8B3"/><path fill-rule="evenodd" clip-rule="evenodd" d="m30.4 143.537-10.863-10.863v-17.858l61.28-61.279h85.857L179.537 66.4v15.696l-61.442 61.441H30.4Z" fill="#29ED09"/><path d="M179.537 143.537h-160v15h160v-15ZM179.537 38.537h-160v15h160v-15Z" fill="#582A94"/><path d="M113.137 0 0 113.137l10.608 10.608L123.745 10.608 113.137 0ZM187.385 74.248 74.248 187.385l10.605 10.605L197.989 84.853l-10.604-10.605Z" fill="#582A94"/><path d="m123.537 98.537-35 15v-30l35 15Z" fill="#fff"/><path d="m38.081 208.431-7.59 23.106h-4.624l-7.557-23.106h5.253l4.609 15.42 4.624-15.42h5.285Zm6.945 1.16c0 .408-.08.789-.242 1.144a2.92 2.92 0 0 1-.628.934 3.25 3.25 0 0 1-.95.629c-.355.15-.737.225-1.145.225-.408 0-.795-.075-1.16-.225a3.316 3.316 0 0 1-.934-.629 3.318 3.318 0 0 1-.629-.934 2.9 2.9 0 0 1-.226-1.144c0-.398.076-.774.226-1.128a2.924 2.924 0 0 1 1.563-1.563 2.845 2.845 0 0 1 1.16-.242c.408 0 .79.081 1.144.242.366.15.682.36.95.628.27.258.479.57.63.935.16.354.241.73.241 1.128Zm-.757 21.946h-4.431V214.28h4.43v17.257Zm20.045 0H63.25l-1.708-2.369c-.419.376-.865.731-1.337 1.064-.462.322-.95.607-1.466.854a9.445 9.445 0 0 1-1.596.564 6.488 6.488 0 0 1-1.643.209 8.775 8.775 0 0 1-3.432-.676 8.99 8.99 0 0 1-2.804-1.902 9.126 9.126 0 0 1-1.885-2.884c-.462-1.117-.693-2.331-.693-3.642 0-1.299.23-2.508.693-3.625a9.092 9.092 0 0 1 1.885-2.901 8.865 8.865 0 0 1 2.804-1.917 8.594 8.594 0 0 1 3.432-.693c.386 0 .784.032 1.192.097.419.064.822.172 1.209.322.397.14.768.328 1.111.564.344.236.634.526.87.87v-8.057h4.432v24.122Zm-4.431-8.782c0-.601-.119-1.181-.355-1.74a4.765 4.765 0 0 0-.935-1.498 4.479 4.479 0 0 0-1.401-1.048 3.677 3.677 0 0 0-1.692-.403c-.602 0-1.171.108-1.708.323a4.04 4.04 0 0 0-1.386.934 4.313 4.313 0 0 0-.919 1.467c-.225.58-.338 1.235-.338 1.965a4.944 4.944 0 0 0 1.257 3.304c.397.429.86.768 1.386 1.015a4.04 4.04 0 0 0 1.708.37c.601 0 1.165-.129 1.692-.386a4.843 4.843 0 0 0 1.401-1.048c.398-.44.71-.94.935-1.498.236-.57.355-1.155.355-1.757Zm14.663 4.56c.171.054.343.092.515.113.172.011.344.016.516.016.43 0 .843-.059 1.24-.177a4.54 4.54 0 0 0 1.112-.499 4.25 4.25 0 0 0 1.611-1.87l3.223 3.239a8.528 8.528 0 0 1-1.418 1.563 8.568 8.568 0 0 1-1.724 1.176 8.179 8.179 0 0 1-1.95.726 8.518 8.518 0 0 1-2.094.257 8.775 8.775 0 0 1-3.432-.676 8.779 8.779 0 0 1-2.804-1.886 8.924 8.924 0 0 1-1.885-2.868c-.462-1.117-.693-2.342-.693-3.674 0-1.364.23-2.61.693-3.738.462-1.128 1.09-2.089 1.885-2.884a8.671 8.671 0 0 1 2.804-1.853 8.948 8.948 0 0 1 3.432-.661 8.718 8.718 0 0 1 4.06.999c.623.322 1.204.72 1.74 1.193.538.461 1.01.982 1.419 1.563l-8.25 9.941Zm2.255-9.071a2.476 2.476 0 0 0-.612-.145 5.42 5.42 0 0 0-.612-.033c-.602 0-1.171.113-1.708.339a4.055 4.055 0 0 0-1.386.934 4.508 4.508 0 0 0-.918 1.483c-.226.569-.339 1.214-.339 1.933 0 .161.006.344.016.548.022.204.049.414.08.629.044.204.092.402.146.596.054.193.123.365.21.515l5.124-6.799Zm24.767 4.511c0 1.289-.231 2.493-.693 3.61a9.128 9.128 0 0 1-1.886 2.884 8.954 8.954 0 0 1-2.803 1.917 8.52 8.52 0 0 1-3.432.693 8.594 8.594 0 0 1-3.433-.693 9.206 9.206 0 0 1-2.803-1.917 9.126 9.126 0 0 1-1.886-2.884c-.461-1.117-.692-2.321-.692-3.61 0-1.31.23-2.524.692-3.641a8.9 8.9 0 0 1 1.886-2.885 8.865 8.865 0 0 1 2.803-1.917 8.594 8.594 0 0 1 3.433-.693 8.87 8.87 0 0 1 3.432.661 8.123 8.123 0 0 1 2.803 1.853c.795.795 1.424 1.756 1.886 2.884.462 1.117.693 2.363.693 3.738Zm-4.432 0c0-.709-.118-1.348-.354-1.917a4.373 4.373 0 0 0-.935-1.483 3.914 3.914 0 0 0-1.401-.95 4.243 4.243 0 0 0-1.692-.339c-.602 0-1.171.113-1.708.339a3.946 3.946 0 0 0-1.386.95 4.506 4.506 0 0 0-.919 1.483c-.225.569-.338 1.208-.338 1.917 0 .666.113 1.284.338 1.853.226.57.532 1.064.919 1.483.397.419.86.752 1.386.999a4.2 4.2 0 0 0 1.708.354c.601 0 1.165-.112 1.691-.338a4.22 4.22 0 0 0 1.402-.951c.398-.408.71-.902.935-1.482.236-.58.354-1.219.354-1.918Zm11.956 8.782h-4.624v-23.106h4.624v9.249h9.233v-9.249h4.625v23.106h-4.625v-9.233h-9.233v9.233Zm34.145 0h-1.064l-1.708-2.369c-.419.376-.865.731-1.337 1.064-.462.322-.951.607-1.467.854a9.418 9.418 0 0 1-1.595.564 6.487 6.487 0 0 1-1.643.209 9.592 9.592 0 0 1-3.433-.612 8.295 8.295 0 0 1-2.803-1.772c-.795-.785-1.424-1.741-1.886-2.869-.461-1.128-.692-2.411-.692-3.851 0-1.342.231-2.572.692-3.69.462-1.128 1.091-2.094 1.886-2.9a8.536 8.536 0 0 1 2.803-1.869 8.782 8.782 0 0 1 3.433-.677c.558 0 1.111.07 1.659.21.548.139 1.08.333 1.595.58a9.57 9.57 0 0 1 1.467.87c.472.333.913.693 1.321 1.079l1.708-2.046h1.064v17.225Zm-4.432-8.782a4.43 4.43 0 0 0-.354-1.74 4.764 4.764 0 0 0-.935-1.498 4.465 4.465 0 0 0-1.402-1.048 3.674 3.674 0 0 0-1.691-.403c-.602 0-1.171.102-1.708.307a3.947 3.947 0 0 0-1.386.902c-.387.397-.693.891-.919 1.482-.225.58-.338 1.246-.338 1.998s.113 1.424.338 2.015c.226.58.532 1.068.919 1.466.397.397.859.698 1.386.902a4.767 4.767 0 0 0 1.708.306c.601 0 1.165-.129 1.691-.386a4.826 4.826 0 0 0 1.402-1.048c.398-.44.709-.94.935-1.498a4.55 4.55 0 0 0 .354-1.757Zm17.274 8.782h-10.055v-4.383h10.055c.301 0 .558-.107.773-.322.215-.215.322-.473.322-.773 0-.312-.107-.516-.322-.613a1.884 1.884 0 0 0-.773-.145h-4.576a5.308 5.308 0 0 1-2.143-.435 5.595 5.595 0 0 1-1.741-1.176 5.795 5.795 0 0 1-1.176-1.756 5.494 5.494 0 0 1-.419-2.144c0-.762.14-1.477.419-2.143a5.59 5.59 0 0 1 1.176-1.74 5.37 5.37 0 0 1 1.741-1.16 5.308 5.308 0 0 1 2.143-.435h8.91v4.383h-8.91c-.301 0-.559.107-.774.322a1.055 1.055 0 0 0-.322.773c0 .312.107.581.322.806.215.215.473.322.774.322h4.576c.752 0 1.461.129 2.127.387a5.25 5.25 0 0 1 1.74 1.048 4.98 4.98 0 0 1 1.176 1.627c.29.634.435 1.327.435 2.079 0 .762-.145 1.477-.435 2.143a5.858 5.858 0 0 1-1.176 1.74 5.59 5.59 0 0 1-1.74 1.176 5.45 5.45 0 0 1-2.127.419Zm12.23 0h-4.399v-24.122h4.399v7.622a5.01 5.01 0 0 1 1.627-.838 5.775 5.775 0 0 1 1.708-.258c1.064 0 2.063.204 2.997.613.935.397 1.746.95 2.433 1.659a7.629 7.629 0 0 1 1.644 2.466c.408.934.612 1.933.612 2.997v9.861h-4.431v-9.861h.032c0-.451-.086-.876-.257-1.273a3.316 3.316 0 0 0-.709-1.064c-.301-.3-.65-.537-1.048-.709a3.169 3.169 0 0 0-1.273-.257 3.324 3.324 0 0 0-2.368.966 3.284 3.284 0 0 0-.709 1.064 3.17 3.17 0 0 0-.258 1.273v9.861Z" fill="#582A94"/></svg>