<svg width="414" height="199" viewBox="0 0 414 199" fill="none" xmlns="http://www.w3.org/2000/svg">
<path d="M259.93 38.461L241.531 94.4766H230.32L212 38.461H224.735L235.906 75.8438L247.117 38.461H259.93ZM276.766 45.2735C276.766 46.2631 276.57 47.1875 276.18 48.0469C275.815 48.9063 275.307 49.6615 274.656 50.3125C274.005 50.9375 273.237 51.4454 272.352 51.836C271.492 52.2006 270.568 52.3828 269.578 52.3828C268.589 52.3828 267.651 52.2006 266.766 51.836C265.906 51.4454 265.151 50.9375 264.5 50.3125C263.875 49.6615 263.367 48.9063 262.977 48.0469C262.612 47.1875 262.43 46.2631 262.43 45.2735C262.43 44.3099 262.612 43.3985 262.977 42.5391C263.367 41.6537 263.875 40.8985 264.5 40.2735C265.151 39.6224 265.906 39.1146 266.766 38.75C267.651 38.3594 268.589 38.1641 269.578 38.1641C270.568 38.1641 271.492 38.3594 272.352 38.75C273.237 39.1146 274.005 39.6224 274.656 40.2735C275.307 40.8985 275.815 41.6537 276.18 42.5391C276.57 43.3985 276.766 44.3099 276.766 45.2735ZM274.93 94.4766H264.188V55.5313H274.93V94.4766ZM323.524 94.4766H320.945L316.805 88.7344C315.789 89.6459 314.708 90.5052 313.563 91.3125C312.443 92.0938 311.258 92.7839 310.008 93.3828C308.758 93.9558 307.469 94.4115 306.141 94.75C304.839 95.0886 303.511 95.2578 302.156 95.2578C299.214 95.2578 296.44 94.711 293.836 93.6172C291.258 92.4974 288.992 90.961 287.039 89.0078C285.112 87.0287 283.589 84.698 282.469 82.0157C281.349 79.3073 280.789 76.3646 280.789 73.1875C280.789 70.0365 281.349 67.1068 282.469 64.3985C283.589 61.6901 285.112 59.3464 287.039 57.3672C288.992 55.3881 291.258 53.8386 293.836 52.7188C296.44 51.599 299.214 51.0391 302.156 51.0391C303.094 51.0391 304.057 51.1172 305.047 51.2735C306.063 51.4297 307.039 51.6901 307.977 52.0547C308.94 52.3933 309.839 52.849 310.672 53.4219C311.505 53.9948 312.208 54.698 312.781 55.5313V36H323.524V94.4766ZM312.781 73.1875C312.781 71.7292 312.495 70.323 311.922 68.9688C311.375 67.5886 310.62 66.3776 309.656 65.336C308.693 64.2683 307.56 63.4219 306.258 62.7969C304.982 62.1459 303.615 61.8204 302.156 61.8204C300.698 61.8204 299.318 62.0808 298.016 62.6016C296.74 63.1224 295.62 63.8776 294.656 64.8672C293.719 65.8308 292.977 67.0157 292.43 68.4219C291.883 69.8282 291.609 71.4167 291.609 73.1875C291.609 74.724 291.883 76.1823 292.43 77.5625C292.977 78.9427 293.719 80.1537 294.656 81.1954C295.62 82.237 296.74 83.0573 298.016 83.6563C299.318 84.2552 300.698 84.5547 302.156 84.5547C303.615 84.5547 304.982 84.2422 306.258 83.6172C307.56 82.9662 308.693 82.1198 309.656 81.0782C310.62 80.0105 311.375 78.7995 311.922 77.4454C312.495 76.0651 312.781 74.6459 312.781 73.1875ZM348.328 84.2422C348.745 84.3724 349.162 84.4636 349.578 84.5157C349.995 84.5417 350.412 84.5547 350.828 84.5547C351.87 84.5547 352.873 84.4115 353.836 84.125C354.8 83.8386 355.698 83.4349 356.531 82.9141C357.391 82.3672 358.146 81.7162 358.797 80.961C359.474 80.1797 360.021 79.3204 360.438 78.3828L368.25 86.2344C367.261 87.6407 366.115 88.9037 364.813 90.0235C363.537 91.1433 362.143 92.0938 360.633 92.875C359.149 93.6563 357.573 94.2422 355.906 94.6328C354.266 95.0495 352.573 95.2578 350.828 95.2578C347.886 95.2578 345.112 94.711 342.508 93.6172C339.93 92.5235 337.664 91 335.711 89.0469C333.784 87.0938 332.261 84.7761 331.141 82.0938C330.021 79.3855 329.461 76.4167 329.461 73.1875C329.461 69.8802 330.021 66.8594 331.141 64.125C332.261 61.3907 333.784 59.0599 335.711 57.1328C337.664 55.2058 339.93 53.7084 342.508 52.6407C345.112 51.573 347.886 51.0391 350.828 51.0391C352.573 51.0391 354.279 51.2474 355.945 51.6641C357.612 52.0808 359.188 52.6797 360.672 53.461C362.182 54.2422 363.589 55.2058 364.891 56.3516C366.193 57.4714 367.339 58.7344 368.328 60.1407L348.328 84.2422ZM353.797 62.25C353.302 62.0677 352.807 61.9506 352.313 61.8985C351.844 61.8464 351.349 61.8204 350.828 61.8204C349.37 61.8204 347.99 62.0938 346.688 62.6407C345.412 63.1615 344.292 63.9167 343.328 64.9063C342.391 65.8959 341.649 67.0938 341.102 68.5C340.555 69.8802 340.281 71.4427 340.281 73.1875C340.281 73.5782 340.294 74.0209 340.32 74.5157C340.373 75.0105 340.438 75.5183 340.516 76.0391C340.62 76.5339 340.737 77.0157 340.867 77.4844C340.998 77.9532 341.167 78.3698 341.375 78.7344L353.797 62.25ZM413.836 73.1875C413.836 76.3125 413.276 79.2292 412.156 81.9375C411.037 84.6198 409.513 86.9506 407.586 88.9297C405.659 90.8828 403.393 92.4323 400.789 93.5782C398.211 94.698 395.438 95.2578 392.469 95.2578C389.526 95.2578 386.753 94.698 384.149 93.5782C381.57 92.4323 379.305 90.8828 377.352 88.9297C375.425 86.9506 373.901 84.6198 372.781 81.9375C371.662 79.2292 371.102 76.3125 371.102 73.1875C371.102 70.0105 371.662 67.0677 372.781 64.3594C373.901 61.6511 375.425 59.3204 377.352 57.3672C379.305 55.3881 381.57 53.8386 384.149 52.7188C386.753 51.599 389.526 51.0391 392.469 51.0391C395.438 51.0391 398.211 51.573 400.789 52.6407C403.393 53.6823 405.659 55.1797 407.586 57.1328C409.513 59.0599 411.037 61.3907 412.156 64.125C413.276 66.8334 413.836 69.8542 413.836 73.1875ZM403.094 73.1875C403.094 71.4688 402.807 69.9193 402.235 68.5391C401.688 67.1328 400.932 65.9349 399.969 64.9454C399.005 63.9297 397.873 63.1615 396.57 62.6407C395.294 62.0938 393.927 61.8204 392.469 61.8204C391.011 61.8204 389.63 62.0938 388.328 62.6407C387.052 63.1615 385.932 63.9297 384.969 64.9454C384.031 65.9349 383.289 67.1328 382.742 68.5391C382.195 69.9193 381.922 71.4688 381.922 73.1875C381.922 74.8021 382.195 76.2995 382.742 77.6797C383.289 79.0599 384.031 80.2578 384.969 81.2735C385.932 82.2891 387.052 83.0964 388.328 83.6954C389.63 84.2683 391.011 84.5547 392.469 84.5547C393.927 84.5547 395.294 84.2813 396.57 83.7344C397.873 83.1875 399.005 82.4193 399.969 81.4297C400.932 80.4401 401.688 79.2422 402.235 77.836C402.807 76.4297 403.094 74.8802 403.094 73.1875ZM235.086 158.477H223.875V102.461H235.086V124.883H257.469V102.461H268.68V158.477H257.469V136.094H235.086V158.477ZM317.859 158.477H315.281L311.141 152.735C310.125 153.646 309.044 154.506 307.899 155.313C306.779 156.094 305.594 156.784 304.344 157.383C303.094 157.956 301.805 158.412 300.477 158.75C299.175 159.089 297.846 159.258 296.492 159.258C293.55 159.258 290.776 158.763 288.172 157.774C285.594 156.784 283.328 155.352 281.375 153.477C279.448 151.576 277.925 149.258 276.805 146.524C275.685 143.789 275.125 140.678 275.125 137.188C275.125 133.933 275.685 130.951 276.805 128.243C277.925 125.508 279.448 123.165 281.375 121.211C283.328 119.258 285.594 117.748 288.172 116.68C290.776 115.586 293.55 115.039 296.492 115.039C297.846 115.039 299.188 115.209 300.516 115.547C301.844 115.886 303.133 116.355 304.383 116.954C305.633 117.553 306.818 118.256 307.938 119.063C309.083 119.87 310.151 120.743 311.141 121.68L315.281 116.719H317.859V158.477ZM307.117 137.188C307.117 135.73 306.831 134.323 306.258 132.969C305.711 131.589 304.956 130.378 303.992 129.336C303.029 128.269 301.896 127.422 300.594 126.797C299.318 126.146 297.951 125.821 296.492 125.821C295.034 125.821 293.654 126.068 292.352 126.563C291.076 127.058 289.956 127.787 288.992 128.75C288.055 129.714 287.313 130.912 286.766 132.344C286.219 133.75 285.945 135.365 285.945 137.188C285.945 139.011 286.219 140.638 286.766 142.071C287.313 143.477 288.055 144.662 288.992 145.625C289.956 146.589 291.076 147.318 292.352 147.813C293.654 148.308 295.034 148.555 296.492 148.555C297.951 148.555 299.318 148.243 300.594 147.618C301.896 146.967 303.029 146.12 303.992 145.079C304.956 144.011 305.711 142.8 306.258 141.446C306.831 140.066 307.117 138.646 307.117 137.188ZM348.992 158.477H324.617V147.852H348.992C349.721 147.852 350.346 147.592 350.867 147.071C351.388 146.55 351.649 145.925 351.649 145.196C351.649 144.441 351.388 143.946 350.867 143.711C350.346 143.477 349.721 143.36 348.992 143.36H337.899C336.05 143.36 334.318 143.008 332.703 142.305C331.089 141.602 329.682 140.651 328.485 139.454C327.287 138.23 326.336 136.81 325.633 135.196C324.956 133.581 324.617 131.849 324.617 130C324.617 128.151 324.956 126.42 325.633 124.805C326.336 123.191 327.287 121.784 328.485 120.586C329.682 119.388 331.089 118.451 332.703 117.774C334.318 117.071 336.05 116.719 337.899 116.719H359.5V127.344H337.899C337.169 127.344 336.544 127.605 336.024 128.125C335.503 128.646 335.242 129.271 335.242 130C335.242 130.756 335.503 131.407 336.024 131.954C336.544 132.474 337.169 132.735 337.899 132.735H348.992C350.815 132.735 352.534 133.047 354.149 133.672C355.763 134.271 357.169 135.118 358.367 136.211C359.565 137.305 360.516 138.62 361.219 140.157C361.922 141.693 362.274 143.373 362.274 145.196C362.274 147.045 361.922 148.776 361.219 150.391C360.516 151.98 359.565 153.386 358.367 154.61C357.169 155.808 355.763 156.758 354.149 157.461C352.534 158.138 350.815 158.477 348.992 158.477ZM378.641 158.477H367.977V99.9996H378.641V118.477C379.917 117.513 381.232 116.836 382.586 116.446C383.94 116.029 385.32 115.821 386.727 115.821C389.305 115.821 391.727 116.316 393.992 117.305C396.258 118.269 398.224 119.61 399.891 121.329C401.583 123.021 402.912 125.013 403.875 127.305C404.865 129.571 405.359 131.993 405.359 134.571V158.477H394.617V134.571H394.695C394.695 133.477 394.487 132.448 394.07 131.485C393.654 130.495 393.081 129.636 392.352 128.907C391.623 128.178 390.776 127.605 389.813 127.188C388.849 126.771 387.82 126.563 386.727 126.563C385.607 126.563 384.552 126.771 383.563 127.188C382.573 127.605 381.714 128.178 380.985 128.907C380.255 129.636 379.682 130.495 379.266 131.485C378.849 132.448 378.641 133.477 378.641 134.571V158.477Z" fill="#582A94"/>
<path fill-rule="evenodd" clip-rule="evenodd" d="M19.9999 115.279L11.071 124.208L19.9999 133.137V115.279ZM81.2791 54.0001H167.137L124.208 11.0711L81.2791 54.0001ZM180 66.863V82.5585L187.848 74.7107L180 66.863ZM118.558 144H30.8629L74.7106 187.848L118.558 144Z" fill="#F7D734"/>
<path fill-rule="evenodd" clip-rule="evenodd" d="M19.9999 133.137L30.8629 144H19.9999V133.137ZM19.9999 115.279V54.0002H81.2791L19.9999 115.279ZM167.137 54.0002L180 66.8631V54.0002H167.137ZM180 82.5586L118.558 144H180V82.5586Z" fill="#00A8B3"/>
<path fill-rule="evenodd" clip-rule="evenodd" d="M30.8629 144L19.9999 133.137V115.279L81.2791 54.0002H167.137L180 66.8631V82.5586L118.558 144H30.8629Z" fill="#29ED09"/>
<path d="M180 144H19.9999V159H180V144Z" fill="#582A94"/>
<path d="M180 39.0002H19.9999V54.0002H180V39.0002Z" fill="#582A94"/>
<path d="M113.6 0.462921L0.462708 113.6L11.0711 124.208L124.208 11.0713L113.6 0.462921Z" fill="#582A94"/>
<path d="M187.848 74.7109L74.7106 187.848L85.3153 198.453L198.452 85.3156L187.848 74.7109Z" fill="#582A94"/>
<path d="M124 99.0002L88.9999 114V84.0002L124 99.0002Z" fill="white"/>
</svg>
