<svg width="414" height="199" fill="none" xmlns="http://www.w3.org/2000/svg"><path d="m259.93 38.461-18.399 56.016H230.32L212 38.46h12.735l11.171 37.383 11.211-37.383h12.813Zm16.836 6.813c0 .99-.196 1.913-.586 2.773a7.094 7.094 0 0 1-1.524 2.266 7.893 7.893 0 0 1-2.304 1.523 7.03 7.03 0 0 1-2.774.547 7.312 7.312 0 0 1-2.812-.547 8.045 8.045 0 0 1-2.266-1.523 8.037 8.037 0 0 1-1.523-2.266 7.02 7.02 0 0 1-.547-2.773c0-.964.182-1.876.547-2.735a7.36 7.36 0 0 1 1.523-2.266 7.08 7.08 0 0 1 2.266-1.523 6.89 6.89 0 0 1 2.812-.586c.99 0 1.914.195 2.774.586a6.978 6.978 0 0 1 2.304 1.523 6.565 6.565 0 0 1 1.524 2.266c.39.86.586 1.77.586 2.734Zm-1.836 49.203h-10.742V55.53h10.742v38.946Zm48.594 0h-2.579l-4.14-5.743a35.365 35.365 0 0 1-3.242 2.579 25.334 25.334 0 0 1-3.555 2.07 22.741 22.741 0 0 1-3.867 1.367c-1.302.339-2.63.508-3.985.508-2.942 0-5.716-.547-8.32-1.64a21.8 21.8 0 0 1-6.797-4.61c-1.927-1.98-3.45-4.31-4.57-6.992-1.12-2.709-1.68-5.651-1.68-8.829 0-3.15.56-6.08 1.68-8.788 1.12-2.709 2.643-5.053 4.57-7.032a21.48 21.48 0 0 1 6.797-4.648c2.604-1.12 5.378-1.68 8.32-1.68.938 0 1.901.078 2.891.234 1.016.157 1.992.417 2.93.782.963.338 1.862.794 2.695 1.367a8.129 8.129 0 0 1 2.109 2.11V36h10.743v58.477Zm-10.743-21.29a10.72 10.72 0 0 0-.859-4.218 11.563 11.563 0 0 0-2.266-3.633 10.862 10.862 0 0 0-3.398-2.54 8.898 8.898 0 0 0-4.102-.976c-1.458 0-2.838.26-4.14.782a9.827 9.827 0 0 0-3.36 2.265c-.937.964-1.679 2.149-2.226 3.555-.547 1.406-.821 2.995-.821 4.766 0 1.536.274 2.994.821 4.374a11.972 11.972 0 0 0 2.226 3.633 10.78 10.78 0 0 0 3.36 2.461 9.79 9.79 0 0 0 4.14.899 9.2 9.2 0 0 0 4.102-.938 11.724 11.724 0 0 0 3.398-2.539 12.186 12.186 0 0 0 2.266-3.633c.573-1.38.859-2.8.859-4.257Zm35.547 11.055c.417.13.834.222 1.25.274.417.026.834.039 1.25.039 1.042 0 2.045-.144 3.008-.43.964-.286 1.862-.69 2.695-1.21a10.194 10.194 0 0 0 2.266-1.954 10.323 10.323 0 0 0 1.641-2.578l7.812 7.851a20.638 20.638 0 0 1-3.437 3.79 20.813 20.813 0 0 1-4.18 2.851 19.797 19.797 0 0 1-4.727 1.758c-1.64.416-3.333.625-5.078.625-2.942 0-5.716-.547-8.32-1.64a21.257 21.257 0 0 1-6.797-4.571c-1.927-1.953-3.45-4.27-4.57-6.953-1.12-2.709-1.68-5.677-1.68-8.906 0-3.308.56-6.329 1.68-9.063 1.12-2.734 2.643-5.065 4.57-6.992a21.043 21.043 0 0 1 6.797-4.492c2.604-1.068 5.378-1.602 8.32-1.602 1.745 0 3.451.208 5.117.625a21.08 21.08 0 0 1 4.727 1.797 20.919 20.919 0 0 1 4.219 2.89 20.638 20.638 0 0 1 3.437 3.79l-20 24.101Zm5.469-21.992c-.495-.182-.99-.3-1.484-.352a13.463 13.463 0 0 0-1.485-.078c-1.458 0-2.838.274-4.14.82a9.827 9.827 0 0 0-3.36 2.266c-.937.99-1.679 2.188-2.226 3.594-.547 1.38-.821 2.943-.821 4.688 0 .39.013.833.039 1.328.053.494.118 1.002.196 1.523.104.495.221.977.351 1.445.131.47.3.886.508 1.25l12.422-16.484Zm60.039 10.938c0 3.124-.56 6.041-1.68 8.75-1.119 2.682-2.643 5.013-4.57 6.992-1.927 1.953-4.193 3.502-6.797 4.648-2.578 1.12-5.351 1.68-8.32 1.68-2.943 0-5.716-.56-8.32-1.68a22.357 22.357 0 0 1-6.797-4.648c-1.927-1.98-3.451-4.31-4.571-6.993-1.119-2.708-1.679-5.624-1.679-8.75 0-3.177.56-6.12 1.679-8.828 1.12-2.708 2.644-5.039 4.571-6.992a21.468 21.468 0 0 1 6.797-4.648c2.604-1.12 5.377-1.68 8.32-1.68 2.969 0 5.742.534 8.32 1.602 2.604 1.041 4.87 2.539 6.797 4.492 1.927 1.927 3.451 4.258 4.57 6.992 1.12 2.708 1.68 5.73 1.68 9.063Zm-10.742 0c0-1.72-.287-3.269-.859-4.649-.547-1.406-1.303-2.604-2.266-3.594a9.484 9.484 0 0 0-3.399-2.304 10.299 10.299 0 0 0-4.101-.82c-1.458 0-2.839.273-4.141.82a9.563 9.563 0 0 0-3.359 2.304c-.938.99-1.68 2.188-2.227 3.594-.547 1.38-.82 2.93-.82 4.648 0 1.615.273 3.112.82 4.493.547 1.38 1.289 2.578 2.227 3.593a11.07 11.07 0 0 0 3.359 2.422 10.17 10.17 0 0 0 4.141.86c1.458 0 2.825-.274 4.101-.82a10.203 10.203 0 0 0 3.399-2.305c.963-.99 1.719-2.188 2.266-3.594.572-1.406.859-2.956.859-4.648Zm-168.008 85.289h-11.211v-56.016h11.211v22.422h22.383v-22.422h11.211v56.016h-11.211v-22.383h-22.383v22.383Zm82.773 0h-2.578l-4.14-5.742a35.398 35.398 0 0 1-3.242 2.578 25.372 25.372 0 0 1-3.555 2.07 22.697 22.697 0 0 1-3.867 1.367 15.754 15.754 0 0 1-3.985.508c-2.942 0-5.716-.495-8.32-1.484a20.123 20.123 0 0 1-6.797-4.297c-1.927-1.901-3.45-4.219-4.57-6.953-1.12-2.735-1.68-5.846-1.68-9.336 0-3.255.56-6.237 1.68-8.945 1.12-2.735 2.643-5.078 4.57-7.032a20.74 20.74 0 0 1 6.797-4.531c2.604-1.094 5.378-1.641 8.32-1.641 1.354 0 2.696.17 4.024.508 1.328.339 2.617.808 3.867 1.407a23.271 23.271 0 0 1 3.555 2.109 28.73 28.73 0 0 1 3.203 2.617l4.14-4.961h2.578v41.758Zm-10.742-21.289c0-1.458-.286-2.865-.859-4.219a11.57 11.57 0 0 0-2.266-3.633 10.872 10.872 0 0 0-3.398-2.539 8.897 8.897 0 0 0-4.102-.976 11.55 11.55 0 0 0-4.14.742 9.631 9.631 0 0 0-3.36 2.187c-.937.964-1.679 2.162-2.226 3.594-.547 1.406-.821 3.021-.821 4.844 0 1.823.274 3.45.821 4.883.547 1.406 1.289 2.591 2.226 3.554a9.62 9.62 0 0 0 3.36 2.188 11.55 11.55 0 0 0 4.14.742 9.2 9.2 0 0 0 4.102-.937 11.734 11.734 0 0 0 3.398-2.539 12.192 12.192 0 0 0 2.266-3.633c.573-1.38.859-2.8.859-4.258Zm41.875 21.289h-24.375v-10.625h24.375c.729 0 1.354-.26 1.875-.781a2.558 2.558 0 0 0 .782-1.875c0-.755-.261-1.25-.782-1.485-.521-.234-1.146-.351-1.875-.351h-11.093c-1.849 0-3.581-.352-5.196-1.055a13.56 13.56 0 0 1-4.218-2.851 14.051 14.051 0 0 1-2.852-4.258c-.677-1.615-1.016-3.347-1.016-5.196 0-1.849.339-3.58 1.016-5.195a13.562 13.562 0 0 1 2.852-4.219 13.01 13.01 0 0 1 4.218-2.812c1.615-.703 3.347-1.055 5.196-1.055H359.5v10.625h-21.601c-.73 0-1.355.261-1.875.781a2.558 2.558 0 0 0-.782 1.875c0 .756.261 1.407.782 1.954.52.52 1.145.781 1.875.781h11.093c1.823 0 3.542.312 5.157.937 1.614.599 3.02 1.446 4.218 2.539a12.082 12.082 0 0 1 2.852 3.946c.703 1.536 1.055 3.216 1.055 5.039 0 1.849-.352 3.58-1.055 5.195a14.183 14.183 0 0 1-2.852 4.219 13.555 13.555 0 0 1-4.218 2.851c-1.615.677-3.334 1.016-5.157 1.016Zm29.649 0h-10.664V100h10.664v18.477c1.276-.964 2.591-1.641 3.945-2.031a13.99 13.99 0 0 1 4.141-.625c2.578 0 5 .495 7.265 1.484 2.266.964 4.232 2.305 5.899 4.024 1.692 1.692 3.021 3.684 3.984 5.976.99 2.266 1.484 4.688 1.484 7.266v23.906h-10.742v-23.906h.078a7.683 7.683 0 0 0-.625-3.086 7.97 7.97 0 0 0-1.718-2.578 8.118 8.118 0 0 0-2.539-1.719 7.69 7.69 0 0 0-3.086-.625 8.06 8.06 0 0 0-3.164.625 7.99 7.99 0 0 0-2.578 1.719 7.957 7.957 0 0 0-1.719 2.578 7.683 7.683 0 0 0-.625 3.086v23.906Z" fill="#582A94"/><path fill-rule="evenodd" clip-rule="evenodd" d="m20 115.279-8.929 8.929L20 133.137v-17.858ZM81.28 54h85.857l-42.929-42.929-42.929 42.93ZM180 66.863v15.695l7.848-7.847L180 66.863ZM118.558 144H30.863l43.848 43.848L118.558 144Z" fill="#F7D734"/><path fill-rule="evenodd" clip-rule="evenodd" d="M20 133.137 30.863 144H20v-10.863Zm0-17.858V54h61.28L20 115.28ZM167.137 54 180 66.863V54h-12.863ZM180 82.56 118.558 144H180V82.559Z" fill="#00A8B3"/><path fill-rule="evenodd" clip-rule="evenodd" d="M30.863 144 20 133.137v-17.858L81.28 54h85.857L180 66.863V82.56L118.558 144H30.863Z" fill="#29ED09"/><path d="M180 144H20v15h160v-15ZM180 39H20v15h160V39Z" fill="#582A94"/><path d="M113.6.463.463 113.6l10.608 10.608L124.208 11.071 113.6.463ZM187.848 74.71 74.711 187.849l10.604 10.605L198.452 85.316 187.848 74.71Z" fill="#582A94"/><path d="m124 99-35 15V84l35 15Z" fill="#fff"/></svg>
